<svg width="27" height="27" viewBox="0 0 27 27" fill="none" xmlns="http://www.w3.org/2000/svg">
<path fill-rule="evenodd" clip-rule="evenodd" d="M13.4352 1.85547L15.1224 1.85547C15.5711 1.85547 15.9349 2.21924 15.9349 2.66797C15.9349 3.1167 15.5711 3.48047 15.1224 3.48047H13.4974C10.921 3.48047 9.07041 3.48219 7.6621 3.67154C6.27717 3.85774 5.44222 4.21187 4.82509 4.829C4.20796 5.44613 3.85383 6.28107 3.66763 7.66601C3.47829 9.07432 3.47656 10.9249 3.47656 13.5013C3.47656 16.0777 3.47829 17.9283 3.66763 19.3366C3.85383 20.7215 4.20796 21.5565 4.82509 22.1736C5.44222 22.7907 6.27717 23.1449 7.6621 23.3311C9.07041 23.5204 10.921 23.5221 13.4974 23.5221C16.0738 23.5221 17.9244 23.5204 19.3327 23.3311C20.7176 23.1449 21.5526 22.7907 22.1697 22.1736C22.7868 21.5565 23.141 20.7215 23.3272 19.3366C23.5165 17.9283 23.5182 16.0777 23.5182 13.5013V11.8763C23.5182 11.4276 23.882 11.0638 24.3307 11.0638C24.7795 11.0638 25.1432 11.4276 25.1432 11.8763V13.5635C25.1432 16.0642 25.1433 18.024 24.9377 19.5531C24.7272 21.1182 24.2881 22.3533 23.3187 23.3227C22.3494 24.292 21.1143 24.7311 19.5492 24.9416C18.0201 25.1472 16.0603 25.1471 13.5595 25.1471H13.4352C10.9345 25.1471 8.97469 25.1472 7.44558 24.9416C5.88045 24.7311 4.64542 24.292 3.67604 23.3227C2.70667 22.3533 2.26755 21.1182 2.05712 19.5531C1.85154 18.024 1.85155 16.0642 1.85156 13.5635V13.4391C1.85155 10.9384 1.85154 8.97859 2.05712 7.44948C2.26755 5.88435 2.70667 4.64933 3.67604 3.67995C4.64542 2.71057 5.88045 2.27145 7.44558 2.06103C8.97469 1.85544 10.9345 1.85546 13.4352 1.85547ZM18.6655 2.96688C20.1473 1.485 22.5499 1.485 24.0318 2.96688C25.5137 4.44875 25.5137 6.85135 24.0318 8.33323L16.8297 15.5353C16.4275 15.9376 16.1755 16.1896 15.8944 16.4089C15.5632 16.6672 15.2049 16.8887 14.8257 17.0694C14.5038 17.2228 14.1658 17.3354 13.6261 17.5153L10.4795 18.5641C9.89858 18.7578 9.2581 18.6066 8.8251 18.1736C8.3921 17.7406 8.2409 17.1001 8.43455 16.5192L9.48339 13.3726C9.66325 12.8329 9.77591 12.4949 9.92933 12.173C10.11 11.7938 10.3315 11.4355 10.5898 11.1043C10.8091 10.8232 11.0611 10.5712 11.4634 10.169L18.6655 2.96688ZM22.8828 4.11593C22.0355 3.26865 20.6618 3.26865 19.8145 4.11593L19.4065 4.52393C19.4311 4.62778 19.4655 4.75151 19.5134 4.88952C19.6686 5.337 19.9624 5.92633 20.5174 6.48129C21.0724 7.03626 21.6617 7.33005 22.1092 7.4853C22.2472 7.53318 22.3709 7.56759 22.4748 7.59218L22.8828 7.18418C23.73 6.3369 23.73 4.9632 22.8828 4.11593ZM21.1946 8.87231C20.6357 8.63193 19.9846 8.24655 19.3684 7.63034C18.7521 7.01414 18.3668 6.36303 18.1264 5.80406L12.6497 11.2807C12.1985 11.732 12.0215 11.9109 11.8711 12.1037C11.6854 12.3419 11.5262 12.5995 11.3963 12.8721C11.291 13.0928 11.2101 13.3311 11.0083 13.9365L10.5404 15.3402L11.6585 16.4582L13.0622 15.9904C13.6676 15.7886 13.9059 15.7077 14.1266 15.6024C14.3992 15.4725 14.6568 15.3133 14.895 15.1276C15.0878 14.9772 15.2667 14.8002 15.7179 14.349L21.1946 8.87231Z" fill="#343330"/>
</svg>
