<svg width="27" height="27" viewBox="0 0 27 27" fill="none" xmlns="http://www.w3.org/2000/svg">
<path d="M8.35677 8.08464C8.35677 7.63591 8.72054 7.27214 9.16927 7.27214H17.8359C18.2847 7.27214 18.6484 7.63591 18.6484 8.08464C18.6484 8.53337 18.2847 8.89714 17.8359 8.89714H9.16927C8.72054 8.89714 8.35677 8.53337 8.35677 8.08464Z" fill="#1C274D"/>
<path d="M9.16927 11.0638C8.72054 11.0638 8.35677 11.4276 8.35677 11.8763C8.35677 12.325 8.72054 12.6888 9.16927 12.6888H14.5859C15.0347 12.6888 15.3984 12.325 15.3984 11.8763C15.3984 11.4276 15.0347 11.0638 14.5859 11.0638H9.16927Z" fill="#1C274D"/>
<path fill-rule="evenodd" clip-rule="evenodd" d="M11.2765 1.85547C9.79494 1.85545 8.60075 1.85543 7.66154 1.9817C6.68642 2.1128 5.86539 2.39327 5.21332 3.04535C4.56124 3.69743 4.28077 4.51846 4.14967 5.49357C4.0234 6.43279 4.02342 7.62696 4.02344 9.10851V17.8941C4.02342 19.3756 4.0234 20.5698 4.14967 21.509C4.28077 22.4842 4.56124 23.3052 5.21332 23.9573C5.86539 24.6093 6.68642 24.8898 7.66154 25.0209C8.60076 25.1472 9.79494 25.1472 11.2765 25.1471H15.7287C17.2103 25.1472 18.4045 25.1472 19.3437 25.0209C20.3188 24.8898 21.1398 24.6093 21.7919 23.9573C22.444 23.3052 22.7244 22.4842 22.8555 21.509C22.9818 20.5698 22.9818 19.3756 22.9818 17.8941V9.10853C22.9818 7.62697 22.9818 6.43279 22.8555 5.49357C22.7244 4.51846 22.444 3.69743 21.7919 3.04535C21.1398 2.39327 20.3188 2.1128 19.3437 1.9817C18.4045 1.85543 17.2103 1.85545 15.7287 1.85547H11.2765ZM6.36237 4.1944C6.66219 3.89457 7.08315 3.69909 7.87807 3.59221C8.69637 3.4822 9.78091 3.48047 11.3359 3.48047H15.6693C17.2243 3.48047 18.3088 3.4822 19.1271 3.59221C19.9221 3.69909 20.343 3.89457 20.6428 4.1944C20.9427 4.49422 21.1382 4.91518 21.245 5.7101C21.355 6.5284 21.3568 7.61294 21.3568 9.16797V17.0221L8.93309 17.0221C8.04696 17.0218 7.44229 17.0216 6.92375 17.1606C6.4601 17.2848 6.03003 17.4877 5.64844 17.7544V9.16797C5.64844 7.61294 5.65016 6.5284 5.76018 5.7101C5.86706 4.91518 6.06254 4.49422 6.36237 4.1944ZM5.67743 20.2712C5.69389 20.6544 5.71971 20.9915 5.76018 21.2925C5.86706 22.0874 6.06254 22.5084 6.36237 22.8082C6.66219 23.108 7.08315 23.3035 7.87807 23.4104C8.69637 23.5204 9.78091 23.5221 11.3359 23.5221H15.6693C17.2243 23.5221 18.3088 23.5204 19.1271 23.4104C19.9221 23.3035 20.343 23.108 20.6428 22.8082C20.9427 22.5084 21.1382 22.0874 21.245 21.2925C21.3348 20.6249 21.3525 19.7801 21.3559 18.6471H9.05853C7.99875 18.6471 7.62825 18.6541 7.34433 18.7302C6.56506 18.939 5.94384 19.5183 5.67743 20.2712Z" fill="#1C274D"/>
</svg>
