<svg width="27" height="27" viewBox="0 0 27 27" fill="none" xmlns="http://www.w3.org/2000/svg">
<path fill-rule="evenodd" clip-rule="evenodd" d="M13.5509 1.85547H13.4439C12.7237 1.85543 12.103 1.8554 11.6061 1.92221C11.0735 1.99382 10.5629 2.1553 10.1488 2.5694C9.73472 2.9835 9.57324 3.49404 9.50164 4.02664C9.43482 4.52361 9.43485 5.14422 9.43489 5.86449L9.4349 8.49417C9.18076 8.40435 8.90729 8.35548 8.6224 8.35548H5.3724C4.0262 8.35548 2.9349 9.44678 2.9349 10.793V23.5221H2.66406C2.21533 23.5221 1.85156 23.8859 1.85156 24.3346C1.85156 24.7834 2.21533 25.1471 2.66406 25.1471H24.3307C24.7795 25.1471 25.1432 24.7834 25.1432 24.3346C25.1432 23.8859 24.7795 23.5221 24.3307 23.5221H24.0599V16.2096C24.0599 14.8634 22.9686 13.7721 21.6224 13.7721H18.3724C18.0875 13.7721 17.814 13.821 17.5599 13.9108L17.5599 5.86449C17.5599 5.14422 17.56 4.52362 17.4932 4.02664C17.4215 3.49404 17.2601 2.9835 16.846 2.5694C16.4319 2.1553 15.9213 1.99382 15.3887 1.92221C14.8918 1.8554 14.2711 1.85543 13.5509 1.85547ZM22.4349 23.5221V16.2096C22.4349 15.7609 22.0711 15.3971 21.6224 15.3971H18.3724C17.9237 15.3971 17.5599 15.7609 17.5599 16.2096V23.5221H22.4349ZM15.9349 23.5221V5.91797C15.9349 5.12897 15.9332 4.61896 15.8826 4.24317C15.8353 3.89076 15.7588 3.7803 15.6969 3.71845C15.6351 3.6566 15.5246 3.5801 15.1722 3.53272C14.7964 3.4822 14.2864 3.48047 13.4974 3.48047C12.7084 3.48047 12.1984 3.4822 11.8226 3.53272C11.4702 3.5801 11.3597 3.6566 11.2979 3.71845C11.236 3.7803 11.1595 3.89076 11.1121 4.24317C11.0616 4.61896 11.0599 5.12897 11.0599 5.91797V23.5221H15.9349ZM9.4349 23.5221V10.793C9.4349 10.3442 9.07113 9.98048 8.6224 9.98048H5.3724C4.92366 9.98048 4.5599 10.3442 4.5599 10.793V23.5221H9.4349Z" fill="white"/>
</svg>
