<svg width="27" height="26" viewBox="0 0 27 26" fill="none" xmlns="http://www.w3.org/2000/svg">
<path d="M15.3932 10.8346C15.3932 11.2834 15.757 11.6471 16.2057 11.6471H16.9525L14.7722 13.8274C14.6665 13.9332 14.495 13.9332 14.3892 13.8274L12.6713 12.1095C11.9309 11.3691 10.7305 11.3691 9.99017 12.1095L7.50621 14.5934C7.1889 14.9107 7.1889 15.4252 7.50621 15.7425C7.82351 16.0598 8.33795 16.0598 8.65525 15.7425L11.1392 13.2585C11.245 13.1528 11.4165 13.1528 11.5222 13.2585L13.2402 14.9765C13.9805 15.7168 15.1809 15.7168 15.9213 14.9765L18.1016 12.7962V13.543C18.1016 13.9917 18.4653 14.3555 18.9141 14.3555C19.3628 14.3555 19.7266 13.9917 19.7266 13.543V10.8346C19.7266 10.3859 19.3628 10.0221 18.9141 10.0221H16.2057C15.757 10.0221 15.3932 10.3859 15.3932 10.8346Z" fill="#343330"/>
<path fill-rule="evenodd" clip-rule="evenodd" d="M13.4352 1.35547C10.9345 1.35546 8.97469 1.35544 7.44558 1.56103C5.88045 1.77145 4.64542 2.21057 3.67604 3.17995C2.70667 4.14933 2.26755 5.38435 2.05712 6.94948C1.85154 8.47859 1.85155 10.4384 1.85156 12.9391V13.0635C1.85155 15.5642 1.85154 17.524 2.05712 19.0531C2.26755 20.6183 2.70667 21.8533 3.67604 22.8227C4.64542 23.792 5.88045 24.2312 7.44558 24.4416C8.97469 24.6472 10.9345 24.6472 13.4352 24.6471H13.5595C16.0603 24.6472 18.0201 24.6472 19.5492 24.4416C21.1143 24.2312 22.3494 23.792 23.3188 22.8227C24.2881 21.8533 24.7272 20.6183 24.9377 19.0531C25.1433 17.524 25.1432 15.5642 25.1432 13.0635V12.9391C25.1432 10.4384 25.1433 8.4786 24.9377 6.94948C24.7272 5.38435 24.2881 4.14933 23.3188 3.17995C22.3494 2.21057 21.1143 1.77145 19.5492 1.56103C18.0201 1.35544 16.0603 1.35546 13.5596 1.35547H13.4352ZM4.82509 4.329C5.44222 3.71187 6.27717 3.35774 7.6621 3.17154C9.07041 2.98219 10.921 2.98047 13.4974 2.98047C16.0738 2.98047 17.9244 2.98219 19.3327 3.17154C20.7176 3.35774 21.5526 3.71187 22.1697 4.329C22.7868 4.94613 23.141 5.78107 23.3272 7.16601C23.5165 8.57432 23.5182 10.4249 23.5182 13.0013C23.5182 15.5777 23.5165 17.4283 23.3272 18.8366C23.141 20.2215 22.7868 21.0565 22.1697 21.6736C21.5526 22.2907 20.7176 22.6449 19.3327 22.8311C17.9244 23.0204 16.0738 23.0221 13.4974 23.0221C10.921 23.0221 9.07041 23.0204 7.6621 22.8311C6.27717 22.6449 5.44222 22.2907 4.82509 21.6736C4.20796 21.0565 3.85383 20.2215 3.66763 18.8366C3.47829 17.4283 3.47656 15.5777 3.47656 13.0013C3.47656 10.4249 3.47829 8.57432 3.66763 7.16601C3.85383 5.78107 4.20796 4.94613 4.82509 4.329Z" fill="#343330"/>
</svg>
