<svg width="27" height="26" viewBox="0 0 27 26" fill="none" xmlns="http://www.w3.org/2000/svg">
<path fill-rule="evenodd" clip-rule="evenodd" d="M5.10156 9.3992C3.24724 9.0228 1.85156 7.38337 1.85156 5.41797C1.85156 3.17431 3.67041 1.35547 5.91406 1.35547C7.87947 1.35547 9.51889 2.75115 9.8953 4.60547H17.0995C17.4759 2.75115 19.1153 1.35547 21.0807 1.35547C23.3244 1.35547 25.1432 3.17431 25.1432 5.41797C25.1432 7.38337 23.7475 9.0228 21.8932 9.3992V16.6034C23.7475 16.9798 25.1432 18.6192 25.1432 20.5846C25.1432 22.8283 23.3244 24.6471 21.0807 24.6471C19.1153 24.6471 17.4759 23.2515 17.0995 21.3971H9.8953C9.51889 23.2515 7.87947 24.6471 5.91406 24.6471C3.67041 24.6471 1.85156 22.8283 1.85156 20.5846C1.85156 18.6192 3.24724 16.9798 5.10156 16.6034L5.10156 9.3992ZM3.47656 5.41797C3.47656 4.07177 4.56787 2.98047 5.91406 2.98047C7.26026 2.98047 8.35156 4.07177 8.35156 5.41797C8.35156 6.76416 7.26026 7.85547 5.91406 7.85547C4.56787 7.85547 3.47656 6.76416 3.47656 5.41797ZM6.72656 16.6034L6.72656 9.3992C8.31836 9.07609 9.57218 7.82226 9.8953 6.23047H17.0995C17.4226 7.82226 18.6764 9.07609 20.2682 9.3992V16.6034C18.6764 16.9265 17.4226 18.1803 17.0995 19.7721H9.8953C9.57218 18.1803 8.31836 16.9265 6.72656 16.6034ZM5.91406 18.1471C4.56787 18.1471 3.47656 19.2384 3.47656 20.5846C3.47656 21.9308 4.56787 23.0221 5.91406 23.0221C7.26026 23.0221 8.35156 21.9308 8.35156 20.5846C8.35156 19.2384 7.26026 18.1471 5.91406 18.1471ZM23.5182 5.41797C23.5182 6.76416 22.4269 7.85547 21.0807 7.85547C19.7345 7.85547 18.6432 6.76416 18.6432 5.41797C18.6432 4.07177 19.7345 2.98047 21.0807 2.98047C22.4269 2.98047 23.5182 4.07177 23.5182 5.41797ZM18.6432 20.5846C18.6432 19.2384 19.7345 18.1471 21.0807 18.1471C22.4269 18.1471 23.5182 19.2384 23.5182 20.5846C23.5182 21.9308 22.4269 23.0221 21.0807 23.0221C19.7345 23.0221 18.6432 21.9308 18.6432 20.5846Z" fill="#343330"/>
</svg>
