<svg width="27" height="27" viewBox="0 0 27 27" fill="none" xmlns="http://www.w3.org/2000/svg">
<path fill-rule="evenodd" clip-rule="evenodd" d="M5.86315 2.9375C5.88007 2.9375 5.89704 2.9375 5.91407 2.9375L21.1317 2.9375C21.8542 2.93747 22.4718 2.93744 22.9655 2.99971C23.489 3.06575 23.9951 3.21407 24.4107 3.60401C24.8337 4.00084 25.0017 4.49594 25.0755 5.01106C25.1433 5.48425 25.1433 6.07263 25.1432 6.74388L25.1432 7.58513C25.1433 8.11435 25.1433 8.57186 25.1038 8.95337C25.0612 9.3639 24.9683 9.74906 24.7451 10.1188C24.5237 10.4858 24.2254 10.7522 23.8816 10.991C23.5578 11.216 23.144 11.4489 22.6573 11.7228L19.4697 13.5173C18.7441 13.9257 18.4914 14.0728 18.3227 14.2193C17.9354 14.5556 17.7135 14.9287 17.6093 15.3962C17.5647 15.5961 17.5599 15.8478 17.5599 16.6124L17.5599 19.5721C17.56 20.5484 17.56 21.3773 17.4595 22.0145C17.3527 22.6921 17.1047 23.342 16.4547 23.7486C15.8194 24.1459 15.1197 24.1094 14.4397 23.9479C13.7848 23.7924 12.9777 23.4769 12.0093 23.0982L11.9152 23.0614C11.4615 22.8841 11.0643 22.7289 10.7499 22.5665C10.412 22.392 10.0981 22.1749 9.858 21.837C9.61518 21.4953 9.51783 21.1289 9.47442 20.7544C9.43483 20.4128 9.43486 20.0029 9.4349 19.5457L9.4349 16.6123C9.4349 15.8478 9.43008 15.5961 9.38552 15.3962C9.28128 14.9287 9.05944 14.5556 8.67205 14.2193C8.50338 14.0728 8.25073 13.9257 7.52513 13.5173L4.33749 11.7229C3.85084 11.4489 3.43706 11.216 3.1132 10.991C2.76941 10.7522 2.47113 10.4858 2.24966 10.1188C2.0265 9.74906 1.93358 9.3639 1.89105 8.95337C1.85152 8.57186 1.85154 8.11435 1.85157 7.58513L1.85157 6.79922C1.85157 6.78071 1.85157 6.76225 1.85157 6.74386C1.85151 6.07262 1.85147 5.48424 1.91928 5.01106C1.99309 4.49594 2.16113 4.00084 2.58409 3.60401C2.99971 3.21407 3.50576 3.06575 4.02932 2.99971C4.52298 2.93744 5.14063 2.93747 5.86315 2.9375ZM4.23268 4.61193C3.87122 4.65753 3.75628 4.73248 3.69595 4.78909C3.64295 4.83881 3.57302 4.92634 3.52785 5.24156C3.47852 5.58576 3.47657 6.05608 3.47657 6.79922V7.54652C3.47657 8.12525 3.47757 8.49801 3.5074 8.78592C3.53518 9.05406 3.58287 9.18299 3.64095 9.27924C3.70071 9.37826 3.79994 9.4895 4.04026 9.65643C4.29346 9.83231 4.63937 10.028 5.16649 10.3247L8.32227 12.1012C8.35182 12.1179 8.38092 12.1342 8.4096 12.1504C9.01486 12.4909 9.42708 12.7228 9.73736 12.9922C10.378 13.5483 10.789 14.2239 10.9716 15.0426C11.0603 15.4405 11.0601 15.8867 11.0599 16.5165C11.0599 16.548 11.0599 16.5799 11.0599 16.6123V19.5043C11.0599 20.0158 11.0612 20.3304 11.0886 20.5673C11.1134 20.7814 11.1525 20.8534 11.1826 20.8958C11.2154 20.9419 11.2804 21.0116 11.4954 21.1226C11.7255 21.2415 12.0426 21.3665 12.5432 21.5622C13.5843 21.9692 14.2846 22.2409 14.8152 22.3669C15.3337 22.4901 15.5045 22.4262 15.5929 22.3709C15.6665 22.3249 15.7803 22.2313 15.8544 21.7615C15.9325 21.266 15.9349 20.5671 15.9349 19.5043V16.6124C15.9349 16.5799 15.9349 16.548 15.9349 16.5165C15.9347 15.8867 15.9345 15.4405 16.0232 15.0426C16.2058 14.2239 16.6168 13.5483 17.2574 12.9922C17.5677 12.7228 17.9799 12.4909 18.5852 12.1504C18.6139 12.1342 18.643 12.1179 18.6725 12.1012L21.8283 10.3247C22.3554 10.028 22.7013 9.83231 22.9545 9.65643C23.1949 9.4895 23.2941 9.37826 23.3539 9.27924C23.4119 9.18299 23.4596 9.05406 23.4874 8.78592C23.5172 8.49801 23.5182 8.12525 23.5182 7.54652V6.79922C23.5182 6.05608 23.5163 5.58576 23.467 5.24156C23.4218 4.92634 23.3519 4.83881 23.2989 4.78909C23.2385 4.73248 23.1236 4.65753 22.7621 4.61193C22.3823 4.56403 21.8684 4.5625 21.0807 4.5625H5.91407C5.12645 4.5625 4.61249 4.56403 4.23268 4.61193Z" fill="#343330"/>
</svg>
