<svg width="20" height="20" viewBox="0 0 20 20" fill="none" xmlns="http://www.w3.org/2000/svg">
<path d="M10.0234 10.0013C10.0234 8.16035 11.5158 6.66797 13.3568 6.66797C15.1977 6.66797 16.6901 8.16039 16.6901 10.0013C16.6901 11.8423 15.1977 13.3346 13.3568 13.3346C11.5158 13.3346 10.0234 11.8422 10.0234 10.0013Z" fill="#00BCFF"/>
<path d="M3.35938 16.6657C3.35938 14.8248 4.85176 13.3324 6.6927 13.3324L8.46906 12.3945L10.026 13.3324V16.6657C10.026 18.5067 8.53363 19.999 6.6927 19.999C4.85176 19.999 3.35938 18.5066 3.35938 16.6657Z" fill="#00CF7F"/>
<path d="M10.0248 0L8.21094 3.15117L10.0248 6.66664H13.3113C15.1523 6.66664 16.6446 5.17426 16.6446 3.33332C16.6446 1.49238 15.1523 0 13.3113 0H10.0248Z" fill="#FF7361"/>
<path d="M3.3125 3.33332C3.3125 5.17426 4.80488 6.66664 6.64582 6.66664L8.41406 7.34961L10.0259 6.66664V0H6.64578C4.80488 0 3.3125 1.49238 3.3125 3.33332Z" fill="#FF4D12"/>
<path d="M3.35938 10.0013C3.35938 11.8423 4.85176 13.3346 6.6927 13.3346H10.026V6.66797H6.6927C4.85176 6.66797 3.35938 8.16039 3.35938 10.0013Z" fill="#B659FF"/>
</svg>
