<svg width="29" height="28" viewBox="0 0 29 28" fill="none" xmlns="http://www.w3.org/2000/svg">
<path d="M14.5278 0.105469C6.53559 0.105469 0.0546875 6.46841 0.0546875 14.3181C0.0546875 20.5977 4.20169 25.9253 9.95231 27.8047C10.6756 27.9363 10.9412 27.4964 10.9412 27.121C10.9412 26.7821 10.9278 25.6625 10.9215 24.4748C6.89509 25.3346 6.04546 22.7979 6.04546 22.7979C5.38709 21.1551 4.43848 20.7183 4.43848 20.7183C3.12533 19.8361 4.53746 19.8542 4.53746 19.8542C5.99082 19.9543 6.75608 21.3189 6.75608 21.3189C8.04694 23.4917 10.1419 22.8636 10.9678 22.5004C11.0977 21.582 11.4728 20.9546 11.8867 20.5999C8.672 20.2405 5.29266 19.0218 5.29266 13.5758C5.29266 12.0241 5.85804 10.7562 6.78389 9.76086C6.63361 9.40264 6.13822 7.9573 6.92409 5.99958C6.92409 5.99958 8.13946 5.61759 10.9052 7.45645C12.0597 7.14154 13.2979 6.98361 14.5278 6.9782C15.7578 6.98361 16.9969 7.14154 18.1536 7.45645C20.916 5.61759 22.1297 5.99958 22.1297 5.99958C22.9175 7.9573 22.4218 9.40264 22.2716 9.76086C23.1996 10.7562 23.7611 12.0241 23.7611 13.5758C23.7611 19.0347 20.3753 20.2367 17.1525 20.5886C17.6716 21.0296 18.1341 21.8946 18.1341 23.2206C18.1341 25.1221 18.1174 26.6526 18.1174 27.121C18.1174 27.4992 18.3779 27.9424 19.1115 27.8028C24.859 25.9213 29.0008 20.5956 29.0008 14.3181C29.0008 6.46841 22.5208 0.105469 14.5278 0.105469Z" fill="white"/>
<path d="M5.53605 20.5105C5.50417 20.5813 5.39105 20.6023 5.28799 20.5538C5.18301 20.5074 5.12406 20.4112 5.15809 20.3403C5.18925 20.2676 5.30261 20.2476 5.40735 20.2958C5.51256 20.3424 5.57248 20.4396 5.53605 20.5105Z" fill="white"/>
<path d="M6.12271 21.1558C6.05368 21.2187 5.91875 21.1895 5.8272 21.0902C5.73253 20.9911 5.71479 20.8586 5.78477 20.7948C5.85596 20.7319 5.98682 20.7614 6.08172 20.8604C6.17639 20.9607 6.19485 21.0923 6.12271 21.1558Z" fill="white"/>
<path d="M6.69427 21.9705C6.60559 22.031 6.46059 21.9743 6.37096 21.8479C6.28228 21.7215 6.28228 21.57 6.37288 21.5092C6.46275 21.4485 6.60559 21.5031 6.69643 21.6286C6.78487 21.7568 6.78487 21.9086 6.69427 21.9705Z" fill="white"/>
<path d="M7.47313 22.7621C7.3938 22.848 7.22484 22.8249 7.10117 22.7077C6.97462 22.5931 6.93939 22.4304 7.01896 22.3445C7.09925 22.2584 7.26917 22.2826 7.3938 22.3989C7.51939 22.5133 7.55774 22.6771 7.47313 22.7621Z" fill="white"/>
<path d="M8.55072 23.2206C8.51573 23.3319 8.35299 23.3825 8.18906 23.3352C8.02537 23.2865 7.91823 23.1561 7.95131 23.0436C7.98534 22.9316 8.1488 22.8788 8.31393 22.9294C8.47738 22.9779 8.58475 23.1074 8.55072 23.2206Z" fill="white"/>
<path d="M9.73913 23.309C9.7432 23.4262 9.6042 23.5234 9.43211 23.5253C9.25907 23.5293 9.1191 23.4344 9.11719 23.3191C9.11719 23.2007 9.25308 23.1045 9.42612 23.1016C9.5982 23.0984 9.73913 23.1925 9.73913 23.309Z" fill="white"/>
<path d="M10.8436 23.1234C10.8643 23.2378 10.7447 23.3553 10.5738 23.3863C10.4058 23.4167 10.2502 23.3461 10.2289 23.2327C10.208 23.1154 10.3298 22.998 10.4976 22.9676C10.6687 22.9385 10.8218 23.0072 10.8436 23.1234Z" fill="white"/>
</svg>
