<svg width="29" height="28" viewBox="0 0 29 28" fill="none" xmlns="http://www.w3.org/2000/svg">
<path fill-rule="evenodd" clip-rule="evenodd" d="M14.5 0C6.49187 0 0 6.26801 0 14C0 21.732 6.49187 28 14.5 28C22.5081 28 29 21.732 29 14C29 6.26801 22.5081 0 14.5 0ZM11.312 6.57844C12.1369 6.5422 12.4005 6.53333 14.5007 6.53333H14.4983C16.5992 6.53333 16.8618 6.5422 17.6867 6.57844C18.51 6.61485 19.0723 6.74069 19.5653 6.92534C20.0744 7.11589 20.5046 7.37101 20.9348 7.78635C21.3649 8.20137 21.6292 8.61796 21.8273 9.10905C22.0174 9.58381 22.1479 10.1264 22.1866 10.9213C22.2237 11.7177 22.2333 11.9722 22.2333 14.0001C22.2333 16.0279 22.2237 16.2818 22.1866 17.0782C22.1479 17.8728 22.0174 18.4156 21.8273 18.8905C21.6292 19.3814 21.3649 19.798 20.9348 20.213C20.5051 20.6284 20.0743 20.8841 19.5658 21.0748C19.0737 21.2595 18.5111 21.3853 17.6879 21.4217C16.863 21.458 16.6002 21.4668 14.4998 21.4668C12.3997 21.4668 12.1362 21.458 11.3113 21.4217C10.4882 21.3853 9.92609 21.2595 9.43405 21.0748C8.92574 20.8841 8.49428 20.6284 8.06459 20.213C7.63458 19.798 7.37036 19.3814 7.17267 18.8903C6.98159 18.4156 6.85125 17.873 6.81339 17.0781C6.77601 16.2816 6.76667 16.0279 6.76667 14.0001C6.76667 11.9722 6.77633 11.7176 6.81323 10.9211C6.85028 10.1265 6.98079 9.58381 7.17251 9.10889C7.37068 8.61796 7.6349 8.20137 8.06507 7.78635C8.49492 7.37116 8.92638 7.11605 9.43502 6.92534C9.92673 6.74069 10.4887 6.61485 11.312 6.57844Z" fill="white"/>
<path fill-rule="evenodd" clip-rule="evenodd" d="M13.8101 7.88077C13.9448 7.88057 14.0897 7.88063 14.2461 7.8807L14.5039 7.88077C16.5687 7.88077 16.8134 7.88793 17.6288 7.92371C18.3828 7.957 18.792 8.07864 19.0646 8.18084C19.4255 8.31618 19.6828 8.47796 19.9533 8.73929C20.224 9.00063 20.3916 9.24952 20.532 9.59797C20.6379 9.86086 20.764 10.256 20.7984 10.984C20.8354 11.7711 20.8435 12.0075 20.8435 14.0002C20.8435 15.9929 20.8354 16.2294 20.7984 17.0165C20.7639 17.7445 20.6379 18.1396 20.532 18.4025C20.3919 18.751 20.224 18.9991 19.9533 19.2602C19.6827 19.5216 19.4257 19.6834 19.0646 19.8187C18.7924 19.9214 18.3828 20.0427 17.6288 20.076C16.8136 20.1118 16.5687 20.1195 14.5039 20.1195C12.4389 20.1195 12.1941 20.1118 11.3789 20.076C10.6249 20.0424 10.2157 19.9207 9.94291 19.8185C9.58202 19.6832 9.32424 19.5214 9.05357 19.2601C8.7829 18.9988 8.61534 18.7505 8.47485 18.4019C8.369 18.139 8.24285 17.7439 8.20853 17.0159C8.17147 16.2287 8.16406 15.9923 8.16406 13.9984C8.16406 12.0044 8.17147 11.7692 8.20853 10.9821C8.24301 10.2541 8.369 9.85899 8.47485 9.59579C8.61502 9.24734 8.7829 8.99845 9.05357 8.73712C9.32424 8.47578 9.58202 8.314 9.94291 8.17835C10.2155 8.07569 10.6249 7.95435 11.3789 7.92091C12.0923 7.8898 12.3688 7.88046 13.8101 7.87891V7.88077ZM18.6311 9.1214C18.1188 9.1214 17.7031 9.52228 17.7031 10.0171C17.7031 10.5118 18.1188 10.9131 18.6311 10.9131C19.1435 10.9131 19.5591 10.5118 19.5591 10.0171C19.5591 9.52243 19.1435 9.12109 18.6311 9.12109V9.1214ZM10.5332 14.0025C10.5332 11.8849 12.3113 10.1681 14.5045 10.168C16.6977 10.168 18.4754 11.8849 18.4754 14.0025C18.4754 16.1201 16.6979 17.8362 14.5046 17.8362C12.3114 17.8362 10.5332 16.1201 10.5332 14.0025Z" fill="white"/>
<path d="M14.4997 11.5117C15.9233 11.5117 17.0775 12.626 17.0775 14.0006C17.0775 15.3751 15.9233 16.4895 14.4997 16.4895C13.0759 16.4895 11.9219 15.3751 11.9219 14.0006C11.9219 12.626 13.0759 11.5117 14.4997 11.5117Z" fill="white"/>
</svg>
