<svg width="27" height="27" viewBox="0 0 27 27" fill="none" xmlns="http://www.w3.org/2000/svg">
<path d="M13.4352 1.85547H15.1224C15.5711 1.85547 15.9349 2.21924 15.9349 2.66797C15.9349 3.1167 15.5711 3.48047 15.1224 3.48047H13.4974C10.921 3.48047 9.07041 3.48219 7.6621 3.67154C6.27717 3.85774 5.44222 4.21187 4.82509 4.829C4.20796 5.44613 3.85383 6.28107 3.66763 7.66601C3.47829 9.07432 3.47656 10.9249 3.47656 13.5013C3.47656 16.0777 3.47829 17.9283 3.66763 19.3366C3.85383 20.7215 4.20796 21.5565 4.82509 22.1736C5.44222 22.7907 6.27717 23.1449 7.6621 23.3311C9.07041 23.5204 10.921 23.5221 13.4974 23.5221C16.0738 23.5221 17.9244 23.5204 19.3327 23.3311C20.7176 23.1449 21.5526 22.7907 22.1697 22.1736C22.7868 21.5565 23.141 20.7215 23.3272 19.3366C23.5165 17.9283 23.5182 16.0777 23.5182 13.5013V11.8763C23.5182 11.4276 23.882 11.0638 24.3307 11.0638C24.7795 11.0638 25.1432 11.4276 25.1432 11.8763V13.5635C25.1432 16.0642 25.1433 18.024 24.9377 19.5531C24.7272 21.1183 24.2881 22.3533 23.3188 23.3227C22.3494 24.292 21.1143 24.7312 19.5492 24.9416C18.0201 25.1472 16.0603 25.1472 13.5595 25.1471H13.4352C10.9345 25.1472 8.97469 25.1472 7.44558 24.9416C5.88045 24.7312 4.64542 24.292 3.67604 23.3227C2.70667 22.3533 2.26755 21.1183 2.05712 19.5531C1.85154 18.024 1.85155 16.0642 1.85156 13.5635V13.4391C1.85155 10.9384 1.85154 8.97859 2.05712 7.44948C2.26755 5.88435 2.70667 4.64933 3.67604 3.67995C4.64542 2.71057 5.88045 2.27145 7.44558 2.06103C8.97469 1.85544 10.9345 1.85546 13.4352 1.85547Z" fill="white"/>
<path d="M19.4342 10.7105C19.7789 10.9977 19.8255 11.5101 19.5382 11.8548L17.557 14.2323C17.2012 14.6594 16.8804 15.0444 16.5807 15.315C16.2547 15.6094 15.8441 15.8716 15.303 15.8716C14.7618 15.8716 14.3512 15.6094 14.0252 15.315C13.7255 15.0444 13.4047 14.6594 13.0489 14.2323L12.7321 13.8522C12.3304 13.3701 12.0838 13.0772 11.8806 12.8937C11.7863 12.8086 11.7304 12.7747 11.7036 12.7617C11.7006 12.7602 11.698 12.7591 11.6959 12.7582L11.6918 12.7566C11.6894 12.7575 11.6855 12.7591 11.6801 12.7617C11.6533 12.7747 11.5974 12.8086 11.5031 12.8937C11.2999 13.0772 11.0532 13.3701 10.6515 13.8522L8.70491 16.1881C8.41764 16.5328 7.9053 16.5794 7.56058 16.2921C7.21585 16.0049 7.16928 15.4925 7.45655 15.1478L9.43779 12.7703C9.79363 12.3432 10.1144 11.9582 10.4141 11.6876C10.7401 11.3932 11.1507 11.131 11.6918 11.131C12.233 11.131 12.6436 11.3932 12.9696 11.6876C13.2693 11.9582 13.5901 12.3432 13.9459 12.7703L14.2627 13.1504C14.6643 13.6325 14.911 13.9254 15.1142 14.1089C15.2085 14.194 15.2644 14.228 15.2912 14.2409C15.2966 14.2436 15.3005 14.2451 15.303 14.2461C15.303 14.2461 15.3059 14.2449 15.308 14.244C15.308 14.244 15.3121 14.2422 15.3147 14.2409C15.3415 14.228 15.3974 14.194 15.4917 14.1089C15.6949 13.9254 15.9416 13.6325 16.3433 13.1504L18.2899 10.8145C18.5772 10.4698 19.0895 10.4232 19.4342 10.7105Z" fill="white"/>
<path fill-rule="evenodd" clip-rule="evenodd" d="M21.0807 1.85547C18.8371 1.85547 17.0182 3.67431 17.0182 5.91797C17.0182 8.16163 18.8371 9.98047 21.0807 9.98047C23.3244 9.98047 25.1432 8.16163 25.1432 5.91797C25.1432 3.67431 23.3244 1.85547 21.0807 1.85547ZM18.6432 5.91797C18.6432 4.57178 19.7345 3.48047 21.0807 3.48047C22.4269 3.48047 23.5182 4.57178 23.5182 5.91797C23.5182 7.26416 22.4269 8.35547 21.0807 8.35547C19.7345 8.35547 18.6432 7.26416 18.6432 5.91797Z" fill="white"/>
</svg>
