<svg width="27" height="27" viewBox="0 0 27 27" fill="none" xmlns="http://www.w3.org/2000/svg">
<path d="M16.7501 4.5625C16.7501 3.91971 16.5595 3.29136 16.2023 2.7569C15.8452 2.22244 15.3376 1.80588 14.7438 1.55989C14.1499 1.31391 13.4965 1.24955 12.866 1.37495C12.2356 1.50035 11.6565 1.80988 11.202 2.2644C10.7474 2.71893 10.4379 3.29802 10.3125 3.92846C10.1871 4.5589 10.2515 5.21236 10.4975 5.80622C10.7434 6.40008 11.16 6.90766 11.6945 7.26478C12.2289 7.62189 12.8573 7.8125 13.5001 7.8125C14.362 7.8125 15.1887 7.47009 15.7982 6.8606C16.4077 6.25111 16.7501 5.42446 16.7501 4.5625ZM13.5001 6.1875C13.1787 6.1875 12.8645 6.0922 12.5973 5.91364C12.33 5.73508 12.1218 5.48129 11.9988 5.18436C11.8758 4.88743 11.8436 4.5607 11.9063 4.24548C11.969 3.93026 12.1238 3.64071 12.351 3.41345C12.5783 3.18619 12.8678 3.03143 13.183 2.96873C13.4983 2.90602 13.825 2.93821 14.1219 3.0612C14.4189 3.18419 14.6726 3.39247 14.8512 3.6597C15.0298 3.92693 15.1251 4.24111 15.1251 4.5625C15.1251 4.99348 14.9539 5.4068 14.6491 5.71155C14.3444 6.0163 13.931 6.1875 13.5001 6.1875ZM24.0118 9.40805C23.9193 8.95301 23.6708 8.54456 23.3092 8.25324C22.9476 7.96192 22.4956 7.80604 22.0313 7.8125H4.96881C4.50577 7.81249 4.05662 7.97068 3.69579 8.26086C3.33495 8.55105 3.0841 8.9558 2.98478 9.40807C2.88546 9.86033 2.94364 10.333 3.14969 10.7476C3.35574 11.1623 3.69728 11.4941 4.11772 11.6881H4.13092L9.28522 13.958L7.15241 22.0546C6.92924 22.5462 6.9105 23.1063 7.1003 23.6117C7.2901 24.1171 7.67289 24.5264 8.16448 24.7496C8.65606 24.9727 9.21616 24.9915 9.72156 24.8017C10.227 24.6119 10.6363 24.2291 10.8594 23.7375L13.5001 19.1804L16.1407 23.7375C16.3754 24.2081 16.7834 24.5694 17.279 24.7453C17.7746 24.9213 18.3191 24.8981 18.798 24.6808C19.2768 24.4634 19.6528 24.0689 19.8467 23.58C20.0405 23.0912 20.0373 22.5462 19.8376 22.0597L17.7048 13.9631L22.859 11.6932H22.8723C23.2994 11.5057 23.6474 11.1744 23.8556 10.7569C24.0638 10.3394 24.1191 9.86208 24.0118 9.40805ZM22.204 10.2104L16.422 12.7555C16.245 12.8335 16.1016 12.9721 16.0177 13.1464C15.9337 13.3206 15.9147 13.5191 15.964 13.7062L18.2867 22.5391C18.2985 22.5864 18.3152 22.6323 18.3365 22.6762C18.3706 22.7491 18.3822 22.8304 18.37 22.91C18.3578 22.9895 18.3222 23.0636 18.2678 23.1229C18.2134 23.1822 18.1426 23.224 18.0645 23.243C17.9863 23.262 17.9042 23.2574 17.8287 23.2297C17.7277 23.1926 17.6455 23.117 17.6001 23.0195C17.5899 22.9975 17.5783 22.9761 17.5656 22.9555L14.2029 17.1563C14.1315 17.0331 14.0289 16.9309 13.9056 16.8599C13.7822 16.7888 13.6424 16.7514 13.5001 16.7514C13.3577 16.7514 13.2179 16.7888 13.0945 16.8599C12.9712 16.9309 12.8687 17.0331 12.7973 17.1563L9.43756 22.9504C9.42485 22.9711 9.41332 22.9924 9.40303 23.0144C9.3577 23.1119 9.27552 23.1876 9.17452 23.2246C9.09897 23.2523 9.0169 23.2569 8.93871 23.2379C8.86053 23.2189 8.78975 23.1771 8.73535 23.1178C8.68096 23.0585 8.64539 22.9844 8.63317 22.9049C8.62095 22.8254 8.63262 22.744 8.6667 22.6711C8.68795 22.6272 8.70463 22.5813 8.71647 22.534L11.0362 13.7031C11.0855 13.5161 11.0664 13.3176 10.9825 13.1433C10.8985 12.9691 10.7551 12.8305 10.5781 12.7525L4.79616 10.2104C4.71316 10.1708 4.64606 10.1042 4.60582 10.0215C4.56558 9.93882 4.55458 9.84492 4.57463 9.75518C4.59468 9.66543 4.64459 9.58514 4.71619 9.52743C4.78779 9.46973 4.87685 9.43802 4.96881 9.4375H22.0313C22.1235 9.43733 22.2131 9.46855 22.2852 9.52601C22.3573 9.58348 22.4077 9.66377 22.4282 9.75369C22.4486 9.84362 22.4379 9.93783 22.3977 10.0208C22.3575 10.1038 22.2902 10.1707 22.207 10.2104H22.204Z" fill="white"/>
</svg>
