<svg width="20" height="20" viewBox="0 0 20 20" fill="none" xmlns="http://www.w3.org/2000/svg">
<path fill-rule="evenodd" clip-rule="evenodd" d="M6.61833 1.04297H13.3765C14.5161 1.04295 15.4347 1.04294 16.1572 1.14007C16.9073 1.24092 17.5388 1.45666 18.0404 1.95826C18.542 2.45986 18.7578 3.09142 18.8586 3.84151C18.9558 4.56398 18.9557 5.48259 18.9557 6.62225V10.047C18.9557 11.1867 18.9558 12.1053 18.8586 12.8278C18.7578 13.5779 18.542 14.2094 18.0404 14.711C17.6255 15.1259 17.1198 15.3468 16.5275 15.4674C15.9523 15.5845 15.2585 15.614 14.4371 15.6227L14.4324 15.6228L14.2454 15.6233C14.1648 15.8768 14.0336 16.1179 13.8519 16.3311C13.7427 16.4593 13.6767 16.6187 13.6633 16.7865C13.5832 17.7902 12.7863 18.5871 11.7826 18.6672C11.6148 18.6806 11.4554 18.7466 11.3272 18.8559C10.5609 19.5089 9.43386 19.5089 8.66756 18.8559C8.53939 18.7466 8.38002 18.6806 8.21215 18.6672C7.20853 18.5871 6.41157 17.7902 6.33148 16.7865C6.31808 16.6187 6.25207 16.4593 6.14285 16.3311C5.96141 16.1182 5.83039 15.8775 5.74977 15.6244C4.88283 15.6185 4.15715 15.595 3.56102 15.4855C2.92936 15.3695 2.3918 15.1485 1.95436 14.711C1.45276 14.2094 1.23701 13.5779 1.13617 12.8278C1.03903 12.1053 1.03905 11.1867 1.03906 10.047V6.62224C1.03905 5.48258 1.03903 4.56398 1.13617 3.84151C1.23701 3.09142 1.45276 2.45986 1.95435 1.95826C2.45595 1.45666 3.08751 1.24092 3.8376 1.14007C4.56008 1.04294 5.47868 1.04295 6.61833 1.04297ZM5.75101 14.3743C5.83173 14.1226 5.96234 13.8833 6.14285 13.6715C6.25207 13.5433 6.31808 13.3839 6.33148 13.2161C6.41157 12.2124 7.20853 11.4155 8.21215 11.3354C8.38002 11.322 8.53939 11.256 8.66756 11.1468C9.43386 10.4937 10.5609 10.4937 11.3272 11.1468C11.4554 11.256 11.6148 11.322 11.7826 11.3354C12.7863 11.4155 13.5832 12.2124 13.6633 13.2161C13.6767 13.3839 13.7427 13.5433 13.8519 13.6715C14.0322 13.883 14.1627 14.122 14.2435 14.3733L14.4261 14.3728C15.2472 14.364 15.8326 14.3332 16.2781 14.2425C16.7068 14.1552 16.9633 14.0204 17.1566 13.8271C17.3872 13.5965 17.5376 13.2727 17.6198 12.6612C17.7044 12.0317 17.7057 11.1975 17.7057 10.0013V6.66797C17.7057 5.47179 17.7044 4.63753 17.6198 4.00807C17.5376 3.39659 17.3872 3.07278 17.1566 2.84214C16.9259 2.61151 16.6021 2.46114 15.9906 2.37893C15.3612 2.2943 14.5269 2.29297 13.3307 2.29297H6.66406C5.46788 2.29297 4.63362 2.2943 4.00416 2.37893C3.39268 2.46114 3.06887 2.61151 2.83824 2.84214C2.6076 3.07278 2.45723 3.39659 2.37502 4.00807C2.29039 4.63753 2.28906 5.47179 2.28906 6.66797V10.0013C2.28906 11.1975 2.29039 12.0317 2.37502 12.6612C2.45723 13.2727 2.6076 13.5965 2.83824 13.8271C3.04112 14.03 3.31451 14.1693 3.78685 14.2561C4.26201 14.3434 4.88344 14.3683 5.75101 14.3743ZM6.8724 5.0013C6.8724 4.65612 7.15222 4.3763 7.4974 4.3763H12.4974C12.8426 4.3763 13.1224 4.65612 13.1224 5.0013C13.1224 5.34648 12.8426 5.6263 12.4974 5.6263H7.4974C7.15222 5.6263 6.8724 5.34648 6.8724 5.0013ZM5.20573 7.91797C5.20573 7.57279 5.48555 7.29297 5.83073 7.29297H14.1641C14.5092 7.29297 14.7891 7.57279 14.7891 7.91797C14.7891 8.26315 14.5092 8.54297 14.1641 8.54297H5.83073C5.48555 8.54297 5.20573 8.26315 5.20573 7.91797ZM10.5165 12.0981C10.2174 11.8433 9.77744 11.8433 9.47833 12.0981C9.14995 12.378 8.74166 12.5471 8.31159 12.5814C7.91985 12.6127 7.60878 12.9238 7.57752 13.3155C7.5432 13.7456 7.37408 14.1539 7.09424 14.4822C6.83934 14.7813 6.83934 15.2213 7.09424 15.5204C7.37408 15.8487 7.5432 16.257 7.57752 16.6871C7.60878 17.0788 7.91985 17.3899 8.31159 17.4212C8.74167 17.4555 9.14995 17.6246 9.47833 17.9045C9.77744 18.1594 10.2174 18.1594 10.5165 17.9045C10.8448 17.6246 11.2531 17.4555 11.6832 17.4212C12.0749 17.3899 12.386 17.0788 12.4173 16.6871C12.4516 16.257 12.6207 15.8487 12.9006 15.5204C13.1554 15.2213 13.1554 14.7813 12.9006 14.4822C12.6207 14.1539 12.4516 13.7456 12.4173 13.3155C12.386 12.9238 12.0749 12.6127 11.6832 12.5814C11.2531 12.5471 10.8448 12.378 10.5165 12.0981ZM10.8209 13.7111C11.0733 13.4755 11.4688 13.4892 11.7043 13.7415C11.9398 13.9939 11.9262 14.3894 11.6738 14.6249L9.88813 16.2915C9.648 16.5157 9.27536 16.5157 9.03523 16.2915L8.32095 15.6249C8.0686 15.3894 8.05497 14.9939 8.29049 14.7415C8.52601 14.4892 8.9215 14.4755 9.17385 14.7111L9.46168 14.9797L10.8209 13.7111Z" fill="#474747"/>
</svg>
