<svg width="20" height="20" viewBox="0 0 20 20" fill="none" xmlns="http://www.w3.org/2000/svg">
<path d="M8.35598 7.47601C8.1119 7.23194 7.71617 7.23194 7.4721 7.47601C7.22802 7.72009 7.22802 8.11582 7.4721 8.3599L9.1135 10.0013L7.47211 11.6427C7.22804 11.8868 7.22804 12.2825 7.47211 12.5266C7.71619 12.7706 8.11192 12.7706 8.356 12.5266L9.99738 10.8852L11.6387 12.5265C11.8828 12.7706 12.2786 12.7706 12.5226 12.5265C12.7667 12.2825 12.7667 11.8867 12.5226 11.6427L10.8813 10.0013L12.5226 8.35991C12.7667 8.11584 12.7667 7.72011 12.5226 7.47603C12.2786 7.23195 11.8828 7.23195 11.6388 7.47603L9.99738 9.11741L8.35598 7.47601Z" fill="#F3164E"/>
<path fill-rule="evenodd" clip-rule="evenodd" d="M9.9974 1.04297C5.04985 1.04297 1.03906 5.05375 1.03906 10.0013C1.03906 14.9489 5.04985 18.9596 9.9974 18.9596C14.9449 18.9596 18.9557 14.9489 18.9557 10.0013C18.9557 5.05375 14.9449 1.04297 9.9974 1.04297ZM2.28906 10.0013C2.28906 5.74411 5.7402 2.29297 9.9974 2.29297C14.2546 2.29297 17.7057 5.74411 17.7057 10.0013C17.7057 14.2585 14.2546 17.7096 9.9974 17.7096C5.7402 17.7096 2.28906 14.2585 2.28906 10.0013Z" fill="#F3164E"/>
<path d="M8.35598 7.47601C8.1119 7.23194 7.71617 7.23194 7.4721 7.47601C7.22802 7.72009 7.22802 8.11582 7.4721 8.3599L9.1135 10.0013L7.47211 11.6427C7.22804 11.8868 7.22804 12.2825 7.47211 12.5266C7.71619 12.7706 8.11192 12.7706 8.356 12.5266L9.99738 10.8852L11.6387 12.5265C11.8828 12.7706 12.2786 12.7706 12.5226 12.5265C12.7667 12.2825 12.7667 11.8867 12.5226 11.6427L10.8813 10.0013L12.5226 8.35991C12.7667 8.11584 12.7667 7.72011 12.5226 7.47603C12.2786 7.23195 11.8828 7.23195 11.6388 7.47603L9.99738 9.11741L8.35598 7.47601Z" stroke="#F3164E"/>
<path fill-rule="evenodd" clip-rule="evenodd" d="M9.9974 1.04297C5.04985 1.04297 1.03906 5.05375 1.03906 10.0013C1.03906 14.9489 5.04985 18.9596 9.9974 18.9596C14.9449 18.9596 18.9557 14.9489 18.9557 10.0013C18.9557 5.05375 14.9449 1.04297 9.9974 1.04297ZM2.28906 10.0013C2.28906 5.74411 5.7402 2.29297 9.9974 2.29297C14.2546 2.29297 17.7057 5.74411 17.7057 10.0013C17.7057 14.2585 14.2546 17.7096 9.9974 17.7096C5.7402 17.7096 2.28906 14.2585 2.28906 10.0013Z" stroke="#F3164E"/>
</svg>
