<svg width="27" height="27" viewBox="0 0 27 27" fill="none" xmlns="http://www.w3.org/2000/svg">
<path d="M10.25 6.1888C9.80127 6.1888 9.4375 6.55257 9.4375 7.0013C9.4375 7.45003 9.80127 7.8138 10.25 7.8138H16.75C17.1987 7.8138 17.5625 7.45003 17.5625 7.0013C17.5625 6.55257 17.1987 6.1888 16.75 6.1888H10.25Z" fill="#1C274D"/>
<path fill-rule="evenodd" clip-rule="evenodd" d="M13.4377 1.85547C11.1924 1.85545 9.42359 1.85544 8.04139 2.04329C6.62215 2.23616 5.48993 2.64054 4.60024 3.53988C3.71175 4.43799 3.31333 5.5789 3.12308 7.00933C2.93747 8.40477 2.93749 10.1913 2.9375 12.4625V17.9852C2.93749 19.6184 2.93748 20.9115 3.04151 21.885C3.14432 22.8471 3.36485 23.715 3.99466 24.2954C4.49995 24.7611 5.13895 25.0547 5.82096 25.1327C6.67405 25.2303 7.47059 24.823 8.25524 24.2672C9.04926 23.7047 10.0125 22.8528 11.2278 21.7779L11.2673 21.7429C11.8307 21.2446 12.2122 20.9083 12.5304 20.6756C12.838 20.4506 13.0258 20.3693 13.1841 20.3375C13.3927 20.2954 13.6073 20.2954 13.8159 20.3375C13.9742 20.3693 14.162 20.4506 14.4696 20.6756C14.7878 20.9083 15.1693 21.2446 15.7327 21.7429L15.7723 21.7779C16.9875 22.8528 17.9508 23.7047 18.7448 24.2672C19.5294 24.823 20.326 25.2303 21.179 25.1327C21.861 25.0547 22.5001 24.7611 23.0053 24.2954C23.6352 23.715 23.8557 22.8471 23.9585 21.885C24.0625 20.9115 24.0625 19.6184 24.0625 17.9853V12.4624C24.0625 10.1913 24.0625 8.40476 23.8769 7.00933C23.6867 5.5789 23.2882 4.43799 22.3998 3.53988C21.5101 2.64054 20.3779 2.23616 18.9586 2.04329C17.5764 1.85544 15.8076 1.85545 13.5623 1.85547H13.4377ZM5.75547 4.68271C6.29363 4.13872 7.02439 3.82144 8.26022 3.65348C9.52032 3.48223 11.1787 3.48047 13.5 3.48047C15.8213 3.48047 17.4797 3.48223 18.7398 3.65348C19.9756 3.82144 20.7064 4.13872 21.2445 4.68271C21.7839 5.22792 22.0994 5.97017 22.2661 7.22358C22.4358 8.49946 22.4375 10.1779 22.4375 12.5236V17.9331C22.4375 19.6299 22.4364 20.8357 22.3427 21.7123C22.2467 22.6108 22.0696 22.948 21.9041 23.1005C21.6508 23.3339 21.3323 23.4796 20.9943 23.5182C20.778 23.543 20.4155 23.4593 19.684 22.9411C18.9705 22.4357 18.0729 21.6433 16.8093 20.5257L16.7809 20.5006C16.2531 20.0337 15.8153 19.6465 15.4288 19.3638C15.0247 19.0684 14.6172 18.8412 14.1368 18.7445C13.7164 18.6598 13.2836 18.6598 12.8632 18.7445C12.3828 18.8412 11.9753 19.0684 11.5712 19.3638C11.1847 19.6465 10.7469 20.0337 10.2191 20.5006L10.1907 20.5257C8.92711 21.6433 8.02945 22.4357 7.31596 22.9411C6.58449 23.4593 6.22197 23.543 6.00569 23.5182C5.6677 23.4796 5.34919 23.3339 5.0959 23.1005C4.93044 22.948 4.75332 22.6108 4.65731 21.7123C4.56363 20.8357 4.5625 19.6299 4.5625 17.9331V12.5236C4.5625 10.1779 4.56419 8.49946 4.73389 7.22358C4.9006 5.97017 5.2161 5.22792 5.75547 4.68271Z" fill="#1C274D"/>
</svg>
