<svg width="27" height="27" viewBox="0 0 27 27" fill="none" xmlns="http://www.w3.org/2000/svg">
<path d="M23.507 6.2292L13.757 2.9792C13.5902 2.9236 13.4098 2.9236 13.243 2.9792L3.49305 6.2292C3.33126 6.28313 3.19055 6.3866 3.09084 6.52495C2.99113 6.66331 2.93749 6.82952 2.9375 7.00006V15.1251C2.9375 15.3405 3.0231 15.5472 3.17548 15.6996C3.32785 15.852 3.53451 15.9376 3.75 15.9376C3.96549 15.9376 4.17215 15.852 4.32452 15.6996C4.4769 15.5472 4.5625 15.3405 4.5625 15.1251V8.1274L7.97398 9.26389C7.0676 10.7282 6.77937 12.4924 7.17259 14.1691C7.56581 15.8457 8.60833 17.2978 10.0712 18.2065C8.24312 18.9235 6.66281 20.2205 5.50703 21.9937C5.44692 22.0831 5.40517 22.1835 5.3842 22.2891C5.36323 22.3947 5.36347 22.5034 5.38489 22.609C5.40632 22.7145 5.4485 22.8147 5.509 22.9038C5.56949 22.9928 5.64709 23.069 5.73728 23.1278C5.82746 23.1867 5.92845 23.227 6.03435 23.2464C6.14026 23.2659 6.24897 23.2641 6.35418 23.2412C6.45939 23.2182 6.55899 23.1746 6.64719 23.1129C6.73539 23.0511 6.81044 22.9724 6.86797 22.8814C8.39852 20.5333 10.8157 19.1876 13.5 19.1876C16.1843 19.1876 18.6015 20.5333 20.132 22.8814C20.2512 23.0585 20.4353 23.1816 20.6445 23.2241C20.8537 23.2666 21.0712 23.225 21.25 23.1084C21.4288 22.9917 21.5545 22.8094 21.6 22.6009C21.6455 22.3923 21.607 22.1742 21.493 21.9937C20.3372 20.2205 18.7508 18.9235 16.9287 18.2065C18.3903 17.2978 19.4318 15.8467 19.825 14.1713C20.2181 12.4958 19.9308 10.7329 19.026 9.26897L23.507 7.776C23.6688 7.7221 23.8095 7.61864 23.9093 7.48029C24.009 7.34193 24.0627 7.1757 24.0627 7.00514C24.0627 6.83458 24.009 6.66835 23.9093 6.52999C23.8095 6.39164 23.6688 6.28818 23.507 6.23428V6.2292ZM18.375 12.6876C18.3752 13.4583 18.1927 14.2181 17.8424 14.9046C17.4921 15.5911 16.9841 16.1848 16.3599 16.6369C15.7358 17.089 15.0133 17.3868 14.2518 17.5056C13.4903 17.6245 12.7115 17.5611 11.9793 17.3207C11.247 17.0803 10.5822 16.6696 10.0393 16.1225C9.49652 15.5754 9.09114 14.9074 8.85647 14.1733C8.6218 13.4392 8.56454 12.6599 8.68937 11.8993C8.81421 11.1388 9.11758 10.4187 9.57461 9.79811L13.243 11.0169C13.4098 11.0725 13.5902 11.0725 13.757 11.0169L17.4254 9.79811C18.0427 10.635 18.3755 11.6477 18.375 12.6876ZM13.5 9.39389L6.31953 7.00006L13.5 4.60623L20.6805 7.00006L13.5 9.39389Z" fill="white"/>
</svg>
